<?xml version="1.0" encoding="UTF-8" standalone="no"?>
<svg
   xmlns:dc="http://purl.org/dc/elements/1.1/"
   xmlns:cc="http://creativecommons.org/ns#"
   xmlns:rdf="http://www.w3.org/1999/02/22-rdf-syntax-ns#"
   xmlns:svg="http://www.w3.org/2000/svg"
   xmlns="http://www.w3.org/2000/svg"
   viewBox="0 0 1380 481.33334"
   height="481.33334"
   width="1380"
   xml:space="preserve"
   id="svg2"
   version="1.1"><metadata
     id="metadata8"><rdf:RDF><cc:Work
         rdf:about=""><dc:format>image/svg+xml</dc:format><dc:type
           rdf:resource="http://purl.org/dc/dcmitype/StillImage" /></cc:Work></rdf:RDF></metadata><defs
     id="defs6" /><g
     transform="matrix(1.3333333,0,0,-1.3333333,0,481.33333)"
     id="g10"><g
       transform="scale(0.1)"
       id="g12"><path
         id="path14"
         style="fill:#000000;fill-opacity:1;fill-rule:evenodd;stroke:none"
         d="M 9623.93,3500 H 719.902 C 188.465,3500 100,3315.99 100,2878.38 V 717.711 C 100,280.441 282.023,100 719.297,100 H 9623.97 c 437.63,0 626.03,180.691 626.03,618.281 V 2878.38 c 0,437.61 -188.5,621.62 -626.07,621.62" /><path
         id="path16"
         style="fill:#00d6ff;fill-opacity:1;fill-rule:nonzero;stroke:none"
         d="M 970.516,2824.55 C 947.734,2816.57 930,2795.29 930,2767.77 V 784.832 c 0,-27.293 17.438,-48.453 39.941,-56.582 L 2023.34,1776.68 970.516,2824.55" /><path
         id="path18"
         style="fill:#00f076;fill-opacity:1;fill-rule:nonzero;stroke:none"
         d="m 2320.11,2072.05 -1299.9,747.89 c -16.28,9.36 -34.151,10.05 -49.694,4.61 l 1052.824,-1047.87 296.77,295.37" /><path
         id="path20"
         style="fill:#ff3a44;fill-opacity:1;fill-rule:nonzero;stroke:none"
         d="M 1020.21,732.648 2320.6,1480.83 2023.34,1776.68 969.941,728.25 c 15.676,-5.668 33.789,-5.078 50.269,4.398" /><path
         id="path22"
         style="fill:#ffd000;fill-opacity:1;fill-rule:nonzero;stroke:none"
         d="m 2320.6,1480.83 422.87,243.3 c 40.23,23.14 40.23,81.19 0,104.34 l -423.36,243.58 -296.77,-295.37 297.26,-295.85" /><path
         id="path24"
         style="fill:#ffffff;fill-opacity:1;fill-rule:nonzero;stroke:none"
         d="m 8117.35,909.422 h 148.41 V 1885.77 H 8117.35 Z M 9429.57,1534.28 9265.54,1112.5 h -7.81 L 9085.9,1534.28 H 8929.68 L 9187.44,940.66 9039.03,612.602 h 148.41 l 398.35,921.678 h -156.22 z m -820.14,-515.51 c -46.86,0 -117.16,23.43 -117.16,85.92 0,78.1 85.92,101.54 156.22,101.54 62.49,0 93.73,-15.63 132.78,-31.25 -15.62,-93.73 -93.73,-156.21 -171.84,-156.21 z m 15.63,538.94 c -109.36,0 -218.71,-46.86 -257.76,-148.4 l 132.78,-54.68 c 31.25,54.68 78.11,70.3 132.79,70.3 78.11,0 148.4,-46.86 156.21,-124.97 v -7.81 c -23.43,15.62 -85.92,39.05 -148.4,39.05 -140.6,0 -281.19,-78.11 -281.19,-218.7 0,-132.789 117.16,-218.711 242.13,-218.711 101.54,0 148.41,46.871 187.46,93.731 h 7.81 v -78.098 h 140.6 v 374.918 c -15.62,171.83 -148.41,273.37 -312.43,273.37 z m -898.25,-140.59 h -210.89 v 335.86 h 210.89 c 109.35,0 171.84,-93.73 171.84,-164.02 -7.81,-85.92 -70.3,-171.84 -171.84,-171.84 z M 7719,1885.77 H 7367.51 V 909.422 h 148.41 V 1276.52 H 7719 c 164.03,0 320.24,117.17 320.24,304.63 0,187.46 -156.21,304.62 -320.24,304.62 z m -1905.84,-867 c -101.54,0 -187.46,85.92 -187.46,203.08 0,117.16 85.92,203.08 187.46,203.08 101.54,0 179.65,-85.92 179.65,-203.08 0,-117.16 -78.11,-203.08 -179.65,-203.08 z M 5985,1479.61 c -39.06,39.05 -101.54,78.1 -179.65,78.1 -164.03,0 -320.25,-148.4 -320.25,-335.86 0,-187.46 148.41,-328.061 320.25,-328.061 78.11,0 140.59,39.063 171.84,78.109 h 7.81 v -46.859 c 0,-124.98 -70.3,-195.269 -179.65,-195.269 -85.92,0 -148.41,62.48 -164.03,117.16 l -124.97,-54.68 c 39.05,-85.918 132.78,-195.27 296.81,-195.27 171.84,0 312.43,101.54 312.43,343.68 v 593.62 H 5985 v -54.67 z m 234.32,-570.188 h 148.41 v 976.348 h -148.41 z m 367.11,320.238 c 0,124.97 101.54,195.27 171.84,195.27 54.67,0 109.35,-31.24 124.97,-70.3 l -296.81,-124.97 z m 453.03,109.35 c -31.24,78.11 -109.35,210.89 -281.19,210.89 -171.84,0 -312.43,-132.78 -312.43,-335.86 0,-187.46 140.59,-335.868 328.05,-335.868 148.41,0 242.14,93.726 273.38,148.408 l -109.35,78.11 c -39.06,-54.68 -85.92,-93.73 -164.03,-93.73 -78.11,0 -124.97,31.24 -164.03,101.54 l 445.22,187.46 -15.62,39.05 z m -3546.12,109.35 v -140.59 h 335.87 c -7.81,-78.11 -39.05,-140.6 -78.11,-179.65 -46.86,-46.87 -124.97,-101.54 -257.76,-101.54 -210.89,0 -367.1,164.03 -367.1,374.92 0,210.89 164.02,374.92 367.1,374.92 109.36,0 195.27,-46.87 257.76,-101.54 l 101.54,101.54 c -85.92,78.11 -195.27,140.59 -351.49,140.59 -281.19,0 -523.32,-234.32 -523.32,-515.51 0,-281.19 242.13,-515.52 523.32,-515.52 156.22,0 265.57,46.872 359.3,148.41 93.73,93.73 124.98,226.51 124.98,328.05 0,31.25 0,62.49 -7.82,85.92 h -484.27 z m 867.01,-429.59 c -101.55,0 -187.46,85.92 -187.46,203.08 0,117.16 85.91,203.08 187.46,203.08 101.54,0 187.46,-78.11 187.46,-203.08 0,-117.16 -85.92,-203.08 -187.46,-203.08 z m 0,531.13 c -187.46,0 -335.87,-140.59 -335.87,-335.86 0,-187.46 148.41,-335.868 335.87,-335.868 187.46,0 335.86,140.598 335.86,335.868 0,203.08 -148.4,335.86 -335.86,335.86 z m 726.4,-531.13 c -101.54,0 -187.46,85.92 -187.46,203.08 0,117.16 85.92,203.08 187.46,203.08 101.54,0 187.46,-78.11 187.46,-203.08 0,-117.16 -85.92,-203.08 -187.46,-203.08 z m 0,531.13 c -187.46,0 -335.86,-140.59 -335.86,-335.86 0,-187.46 148.4,-335.868 335.86,-335.868 187.46,0 335.87,140.598 335.87,335.868 0,203.08 -148.41,335.86 -335.87,335.86" /><path
         id="path26"
         style="fill:#ffffff;fill-opacity:1;fill-rule:nonzero;stroke:none"
         d="m 3250.24,2465.72 h 243.36 c 1.39,-5.54 2.54,-12.25 3.47,-20.1 0.92,-7.87 1.39,-15.72 1.39,-23.58 0,-31.89 -4.86,-61.94 -14.56,-90.13 -9.71,-28.2 -24.96,-53.39 -45.77,-75.57 -22.18,-23.58 -48.76,-41.84 -79.73,-54.78 -30.97,-12.93 -66.33,-19.41 -106.08,-19.41 -36.05,0 -70.03,6.48 -101.91,19.41 -31.9,12.94 -59.63,30.96 -83.21,54.08 -23.57,23.11 -42.29,50.5 -56.16,82.16 -13.86,31.66 -20.8,66.21 -20.8,103.66 0,37.44 6.94,71.98 20.8,103.65 13.87,31.65 32.59,59.04 56.16,82.16 23.58,23.11 51.31,41.13 83.21,54.08 31.88,12.93 65.86,19.41 101.91,19.41 40.21,0 76.15,-6.93 107.82,-20.8 31.65,-13.87 58.81,-33.05 81.46,-57.54 l -64.48,-63.1 c -16.18,17.1 -34.21,30.16 -54.08,39.18 -19.88,9.01 -43.67,13.52 -71.41,13.52 -22.65,0 -44.14,-4.06 -64.48,-12.14 -20.34,-8.09 -38.13,-19.53 -53.39,-34.32 -15.25,-14.8 -27.38,-32.7 -36.4,-53.73 -9.01,-21.04 -13.52,-44.5 -13.52,-70.37 0,-25.9 4.51,-49.35 13.52,-70.38 9.02,-21.04 21.26,-38.94 36.75,-53.73 15.48,-14.8 33.39,-26.24 53.73,-34.32 20.34,-8.09 42.06,-12.14 65.18,-12.14 26.35,0 48.64,3.82 66.9,11.44 18.26,7.63 33.86,17.45 46.8,29.47 9.24,8.32 17.22,18.83 23.92,31.55 6.7,12.7 11.9,26.92 15.61,42.64 h -156.01 v 79.73" /><path
         id="path28"
         style="fill:#ffffff;fill-opacity:1;fill-rule:nonzero;stroke:none"
         d="m 3669.71,2600.92 v -115.09 h 198.98 v -88.75 h -198.98 v -115.09 h 221.17 v -88.75 h -314.77 v 496.43 h 314.77 v -88.75 h -221.17" /><path
         id="path30"
         style="fill:#ffffff;fill-opacity:1;fill-rule:nonzero;stroke:none"
         d="m 4082.23,2193.24 v 407.68 h -138.67 v 88.75 h 370.94 v -88.75 h -138.67 v -407.68 h -93.6" /><path
         id="path32"
         style="fill:#ffffff;fill-opacity:1;fill-rule:nonzero;stroke:none"
         d="m 4533.58,2689.67 h 93.6 v -496.43 h -93.6 v 496.43" /><path
         id="path34"
         style="fill:#ffffff;fill-opacity:1;fill-rule:nonzero;stroke:none"
         d="m 4832.4,2193.24 v 407.68 h -138.67 v 88.75 h 370.93 v -88.75 H 4926 v -407.68 h -93.6" /><path
         id="path36"
         style="fill:#ffffff;fill-opacity:1;fill-rule:nonzero;stroke:none"
         d="m 5504.93,2270.89 c 23.1,0 44.71,4.16 64.82,12.48 20.11,8.32 37.67,19.87 52.7,34.67 15.01,14.79 26.8,32.7 35.36,53.74 8.54,21.02 12.82,44.25 12.82,69.68 0,25.41 -4.28,48.64 -12.82,69.68 -8.56,21.02 -20.35,38.93 -35.36,53.73 -15.03,14.79 -32.59,26.35 -52.7,34.67 -20.11,8.32 -41.72,12.48 -64.82,12.48 -23.12,0 -44.72,-4.16 -64.83,-12.48 -20.11,-8.32 -37.68,-19.88 -52.69,-34.67 -15.03,-14.8 -26.81,-32.71 -35.36,-53.73 -8.56,-21.04 -12.83,-44.27 -12.83,-69.68 0,-25.43 4.27,-48.66 12.83,-69.68 8.55,-21.04 20.33,-38.95 35.36,-53.74 15.01,-14.8 32.58,-26.35 52.69,-34.67 20.11,-8.32 41.71,-12.48 64.83,-12.48 z m 0,-88.74 c -36.99,0 -71.31,6.7 -102.96,20.11 -31.67,13.39 -59.05,31.77 -82.17,55.12 -23.11,23.33 -41.25,50.84 -54.42,82.5 -13.17,31.66 -19.76,65.52 -19.76,101.58 0,36.05 6.59,69.9 19.76,101.57 13.17,31.65 31.31,59.16 54.42,82.51 23.12,23.33 50.5,41.71 82.17,55.11 31.65,13.41 65.97,20.11 102.96,20.11 36.97,0 71.29,-6.7 102.96,-20.11 31.65,-13.4 59.04,-31.78 82.15,-55.11 23.11,-23.35 41.26,-50.86 54.43,-82.51 13.18,-31.67 19.76,-65.52 19.76,-101.57 0,-36.06 -6.58,-69.92 -19.76,-101.58 -13.17,-31.66 -31.32,-59.17 -54.43,-82.5 -23.11,-23.35 -50.5,-41.73 -82.15,-55.12 -31.67,-13.41 -65.99,-20.11 -102.96,-20.11" /><path
         id="path38"
         style="fill:#ffffff;fill-opacity:1;fill-rule:nonzero;stroke:none"
         d="m 5839.8,2689.67 h 108.85 l 199.68,-332.8 h 5.55 l -5.55,95.68 v 237.12 h 92.91 v -496.43 h -98.46 l -210.77,351.52 h -5.55 l 5.55,-95.68 v -255.84 h -92.21 v 496.43" /></g></g></svg>