<?xml version="1.0" encoding="UTF-8" standalone="no"?>
<svg
   xmlns:dc="http://purl.org/dc/elements/1.1/"
   xmlns:cc="http://creativecommons.org/ns#"
   xmlns:rdf="http://www.w3.org/1999/02/22-rdf-syntax-ns#"
   xmlns:svg="http://www.w3.org/2000/svg"
   xmlns="http://www.w3.org/2000/svg"
   viewBox="0 0 1380 481.33334"
   height="481.33334"
   width="1380"
   xml:space="preserve"
   id="svg2"
   version="1.1"><metadata
     id="metadata8"><rdf:RDF><cc:Work
         rdf:about=""><dc:format>image/svg+xml</dc:format><dc:type
           rdf:resource="http://purl.org/dc/dcmitype/StillImage" /></cc:Work></rdf:RDF></metadata><defs
     id="defs6" /><g
     transform="matrix(1.3333333,0,0,-1.3333333,0,481.33333)"
     id="g10"><g
       transform="scale(0.1)"
       id="g12"><path
         id="path14"
         style="fill:#000000;fill-opacity:1;fill-rule:evenodd;stroke:none"
         d="M 9623.93,3500 H 719.902 C 188.465,3500 100,3315.99 100,2878.38 V 717.711 C 100,280.441 282.023,100 719.297,100 H 9623.98 c 437.62,0 626.02,180.691 626.02,618.281 V 2878.38 c 0,437.61 -188.5,621.62 -626.07,621.62" /><path
         id="path16"
         style="fill:#ffffff;fill-opacity:1;fill-rule:evenodd;stroke:none"
         d="m 2746.28,1383.62 c -51.13,-113.31 -75.6,-163.88 -141.4,-264.02 -91.86,-139.85 -221.29,-313.952 -381.66,-315.409 -142.54,-1.32 -179.13,92.77 -372.54,91.7 -193.41,-1.059 -233.81,-93.352 -376.36,-92.051 -160.39,1.48 -283.04,158.719 -374.89,298.5 -256.825,390.96 -283.657,849.76 -125.289,1093.67 112.579,173.34 290.109,274.81 457.099,274.81 169.99,0 276.86,-93.23 417.41,-93.23 136.33,0 219.45,93.38 415.96,93.38 148.56,0 305.97,-80.87 418.14,-220.79 -367.48,-201.36 -307.8,-726.25 63.53,-866.56" /><path
         id="path18"
         style="fill:#ffffff;fill-opacity:1;fill-rule:evenodd;stroke:none"
         d="m 2115.53,2627.14 c 71.36,91.64 125.63,221.12 105.95,353.39 -116.61,-8.03 -253.09,-82.24 -332.77,-178.99 -72.31,-87.85 -131.99,-218.12 -108.75,-344.71 127.33,-3.94 259.07,72.11 335.57,170.31" /><path
         id="path20"
         style="fill:#ffffff;fill-opacity:1;fill-rule:evenodd;stroke:none"
         d="m 4561.22,1514.45 c -42.4,0 -80.72,-13.97 -115.36,-42.09 -34.61,-28.52 -57.2,-65.43 -67.89,-111.13 -5.23,-21.42 -7.97,-38.78 -7.97,-52.69 v -128.87 c 0,-56.41 17.07,-104.1 51.81,-142.87 34.46,-38.409 79.48,-57.921 134.62,-57.921 64.65,0 115.5,24.811 151.55,74.861 36.11,49.96 54.02,115.79 54.02,197.81 0,75.23 -16.77,137.44 -50.81,186.17 -37.36,50.76 -87.21,76.73 -149.97,76.73 z m 3149,10.71 c -68.87,0 -121.49,-30.56 -157.41,-92.1 -31.14,-50.64 -46.4,-112.47 -46.4,-185.58 0,-71.27 15.26,-132.02 46.4,-182.78 36.79,-61.42 88.89,-91.989 156.13,-91.989 65.43,0 117.19,30.979 154.15,93.899 32.08,51.39 48.09,113.06 48.09,183.83 0,70.86 -15.37,131.98 -45.99,182.62 -36.62,61.54 -87.96,92.1 -154.97,92.1 z m -2297.96,-10.71 c -42.63,0 -80.72,-13.97 -115.4,-42.09 -34.52,-28.52 -57.79,-65.43 -68.48,-111.13 -5.3,-21.42 -8.38,-38.78 -8.38,-52.69 v -128.87 c 0,-56.41 17.59,-104.1 52.27,-142.87 34.45,-38.409 79.71,-57.921 134.69,-57.921 65.15,0 115.67,24.811 151.83,74.861 36.2,49.96 54.42,115.79 54.42,197.81 0,75.23 -17.09,137.44 -50.97,186.17 -37.45,50.76 -87.4,76.73 -149.98,76.73 z M 3634.01,1790 H 3631 c -10.82,-50 -27.58,-116.55 -51.16,-205.9 L 3490.58,1300 h 288.32 l -90.44,284.1 c -9.78,28.81 -28.03,105.9 -54.45,205.9 z m 5381.37,-256.4 c -56.17,0 -101.81,-28.78 -137.03,-75.24 -28.64,-37.09 -45.82,-78.36 -51,-138.36 h 358.49 c 0.93,60 -9.96,99.52 -33.3,136.9 -29.87,47.62 -75.68,76.7 -137.16,76.7 z M 3909.73,870 3809.44,1180 h -349.06 l -95.73,-310 h -178.28 l 345.46,1070 h 213.75 L 4093.12,870 Z m 920.28,75.18 c -63.97,-67.7 -143.84,-101.719 -238.78,-101.719 -102.79,0 -171.23,36.57 -221.23,110.148 V 540 h -170 v 840.96 c 0,82.78 -3.94,159.04 -8.3,259.04 h 151.38 l 9.5,-130 h 3.01 c 57.67,90 144.62,139.64 261.64,139.64 91.35,0 167.37,-35.12 228.81,-107.53 60.88,-72.06 91.53,-167.02 91.53,-284.85 0,-132.08 -35.77,-235.42 -107.56,-312.08 z m 850.81,0 c -64.13,-67.7 -144.13,-101.719 -239.32,-101.719 -102.49,0 -171.5,36.57 -221.5,110.148 V 540 h -170 v 840.96 c 0,82.78 -3.16,159.04 -7.3,259.04 h 150.96 l 9.96,-130 h 2.96 c 57.76,90 144.56,139.64 261.4,139.64 91.41,0 167.63,-35.12 228.7,-107.53 61.23,-72.06 91.71,-167.02 91.71,-284.85 0,-132.08 -35.78,-235.42 -107.57,-312.08 z m 994.29,-6 c -70.26,-62.77 -167.67,-93.969 -292.63,-93.969 -115.81,0 -208.41,22.418 -278.33,66.828 l 39.97,143.381 c 75.36,-44.41 158.16,-66.951 248.25,-66.951 65.09,0 115.41,14.811 151.57,43.801 35.92,29.11 54,68.11 54,117.59 0,42.96 -14.89,79.64 -44.45,109.56 -30.02,29.68 -79.02,57.1 -148.15,82.84 -187.84,69.91 -281.93,172.42 -281.93,307.31 0,88.14 32.81,160.61 99.33,216.85 66.4,56.16 154.29,84.41 263.82,84.41 97.67,0 179.01,-17.13 243.92,-50.89 l -43.43,-140.29 c -60.54,32.84 -129.35,49.49 -206.1,49.49 -60.67,0 -108.24,-15.44 -142.47,-44.49 -28.6,-26.94 -42.98,-59.32 -42.98,-97.43 0,-42.21 16.49,-77.43 49.35,-105.45 28.77,-25.38 80.84,-52.84 155.99,-82.55 92.74,-36.9 160.48,-80.72 204.2,-130.8 43.42,-49.89 65.31,-111.94 65.31,-186.17 0,-91.46 -31.96,-166.02 -95.24,-223.07 z M 7280,1500 h -180 v -369.94 c 0,-95.54 29.64,-142.9 96.59,-142.9 30.79,0 54.03,2.238 74.4,7.5 l 3.87,-130.351 c -34.05,-12.75 -79.09,-19.207 -134.34,-19.207 -67.64,0 -122.95,20.437 -161.08,62.168 -38.6,41.23 -59.44,110.9 -59.44,208.64 V 1500 h -110 v 140 h 110 v 137.16 l 180,51.01 V 1640 h 180 z m 707.79,-538.879 c -71.37,-78.41 -165.91,-117.66 -283.56,-117.66 -113.87,0 -204.69,37.68 -272.1,113.129 -67.35,75.21 -100.94,170.67 -100.94,285.25 0,119.91 34.69,218.31 104.26,294.67 69.68,76.79 163.17,114.52 281.06,114.52 114.1,0 205.38,-37.32 274.42,-113.11 65.67,-72.88 98.62,-167.73 98.62,-283.39 0,-119.34 -33.77,-216.69 -101.76,-293.409 z M 8610,1484.11 c -10,3.1 -36.54,4.37 -55.52,4.37 -60.54,0 -107.81,-22.81 -140.82,-68.4 C 8384.9,1379.63 8370,1329.39 8370,1267.27 V 870 h -170 v 521.86 c 0,88.71 -3.69,168.14 -6.72,248.14 h 149.73 l 6.4,-160 h 4.72 c 17.99,50 46.51,95.47 86.04,126.03 38.25,27.93 81.19,43.12 125.78,43.12 15.78,0 34.05,0.99 44.05,-1.1 z M 9343.71,1200 h -516.36 c 2.04,-70 27.01,-131.38 74.98,-171.65 43.43,-36.202 99.67,-52.721 168.82,-52.721 76.61,0 146.01,12.973 208.76,37.781 l 27.07,-119.269 c -73,-32.141 -159.8,-47.493 -259.87,-47.493 -119.8,0 -214.11,35.211 -282.63,105.821 -68.46,70.601 -102.98,165.481 -102.98,284.361 0,117.07 32.02,214.08 95.59,291.97 67.24,82.73 157.53,124.08 270.99,124.08 111.88,0 196.24,-41.33 253.4,-124.06 45.53,-66.06 68.52,-150.67 68.52,-247.36 0,-30.56 -2.21,-61.46 -6.29,-81.46" /><path
         id="path22"
         style="fill:#ffffff;fill-opacity:1;fill-rule:nonzero;stroke:none"
         d="m 3571.77,2438.07 -43.59,136.53 c -10.69,33.72 -19.74,71.55 -27.97,103.63 h -1.64 c -8.22,-32.08 -16.45,-70.73 -26.31,-103.63 l -42.77,-136.53 z m -158.73,-76.48 -47.7,-157.09 h -104.46 l 177.66,554.33 h 129.12 l 180.11,-554.33 h -108.56 l -50.17,157.09 h -176" /><path
         id="path24"
         style="fill:#ffffff;fill-opacity:1;fill-rule:nonzero;stroke:none"
         d="m 3862.95,2605.03 64.98,-203.15 c 11.51,-35.36 19.74,-67.44 27.14,-100.33 h 2.46 c 7.41,32.89 16.45,64.15 27.15,100.33 l 63.32,203.15 h 106.92 L 4001.95,2204.5 h -99.52 l -148.86,400.53 h 109.38" /><path
         id="path26"
         style="fill:#ffffff;fill-opacity:1;fill-rule:nonzero;stroke:none"
         d="m 4423.9,2400.24 c -71.56,1.64 -139.82,-13.98 -139.82,-74.84 0,-39.48 25.5,-57.57 57.57,-57.57 40.3,0 69.91,26.32 78.96,55.1 2.46,7.4 3.29,15.62 3.29,22.21 z m 13.16,-195.74 -6.59,44.41 h -2.46 c -24.68,-31.25 -66.62,-53.46 -118.43,-53.46 -80.61,0 -125.84,58.39 -125.84,119.26 0,101.15 89.65,152.15 237.69,151.33 v 6.58 c 0,26.32 -10.69,69.9 -81.43,69.9 -39.47,0 -80.6,-12.33 -107.73,-29.6 l -19.75,65.79 c 29.61,18.1 81.43,35.37 144.76,35.37 128.3,0 165.31,-81.42 165.31,-168.61 v -144.75 c 0,-36.18 1.64,-71.55 5.75,-96.22 h -91.28" /><path
         id="path28"
         style="fill:#ffffff;fill-opacity:1;fill-rule:nonzero;stroke:none"
         d="m 4629.54,2788.44 h 101.98 V 2204.5 h -101.98 v 583.94" /><path
         id="path30"
         style="fill:#ffffff;fill-opacity:1;fill-rule:nonzero;stroke:none"
         d="m 4840.91,2204.5 v 400.53 H 4942.9 V 2204.5 Z m 107.74,512.39 c 0,-30.44 -22.2,-54.29 -57.57,-54.29 -33.72,0 -55.92,23.85 -55.92,54.29 0,31.25 23.02,55.1 56.74,55.1 34.55,0 55.93,-23.85 56.75,-55.1" /><path
         id="path32"
         style="fill:#ffffff;fill-opacity:1;fill-rule:nonzero;stroke:none"
         d="m 5152.64,2369.81 c 0,-8.22 0.82,-16.45 2.46,-23.85 10.7,-40.3 46.06,-70.73 89.65,-70.73 63.33,0 101.98,50.99 101.98,131.59 0,70.73 -33.72,128.3 -101.16,128.3 -41.12,0 -78.13,-29.61 -89.65,-74.02 -1.64,-7.4 -3.28,-16.45 -3.28,-26.32 z M 5048.18,2204.5 c 1.65,27.14 3.29,71.55 3.29,112.67 v 471.27 h 101.17 v -238.51 h 1.64 c 24.68,38.65 68.26,64.15 128.3,64.15 97.87,0 167.78,-81.42 166.96,-203.15 0,-143.93 -91.29,-215.48 -181.76,-215.48 -51.82,0 -97.87,19.74 -126.66,69.09 h -1.64 l -4.94,-60.04 h -86.36" /><path
         id="path34"
         style="fill:#ffffff;fill-opacity:1;fill-rule:nonzero;stroke:none"
         d="m 5532.64,2788.44 h 101.98 V 2204.5 h -101.98 v 583.94" /><path
         id="path36"
         style="fill:#ffffff;fill-opacity:1;fill-rule:nonzero;stroke:none"
         d="m 5991.58,2447.12 c 0.82,37.01 -15.63,97.87 -83.07,97.87 -62.51,0 -88.83,-56.75 -92.94,-97.87 z m -176.01,-70.73 c 2.47,-72.38 59.22,-103.63 123.37,-103.63 46.88,0 80.6,6.58 111.03,18.09 l 14.81,-69.9 c -34.55,-13.99 -82.25,-24.68 -139.82,-24.68 -129.95,0 -206.44,79.78 -206.44,202.32 0,111.03 67.44,215.49 195.74,215.49 129.95,0 172.72,-106.92 172.72,-194.92 0,-18.92 -1.65,-33.73 -3.29,-42.77 h -268.12" /><path
         id="path38"
         style="fill:#ffffff;fill-opacity:1;fill-rule:nonzero;stroke:none"
         d="m 6417.63,2404.35 c 0,-77.31 37.83,-135.7 99.52,-135.7 57.57,0 97.87,56.75 97.87,137.35 0,62.5 -27.96,134.05 -97.05,134.05 -71.55,0 -100.34,-69.08 -100.34,-135.7 z m 301.84,4.11 c 0,-147.21 -103.63,-213.01 -205.61,-213.01 -113.5,0 -200.68,78.13 -200.68,206.43 0,131.6 86.36,212.2 207.26,212.2 119.25,0 199.03,-83.89 199.03,-205.62" /><path
         id="path40"
         style="fill:#ffffff;fill-opacity:1;fill-rule:nonzero;stroke:none"
         d="m 6802.57,2485.78 c 0,46.05 -0.82,84.71 -3.29,119.25 h 88.83 l 4.93,-60.04 h 2.47 c 17.27,31.26 60.86,69.09 127.48,69.09 69.91,0 142.28,-45.24 142.28,-171.9 V 2204.5 h -101.16 v 226.17 c 0,57.57 -21.38,101.16 -76.49,101.16 -40.3,0 -68.26,-28.78 -78.95,-59.21 -3.29,-9.05 -4.11,-21.39 -4.11,-32.9 V 2204.5 h -101.99 v 281.28" /><path
         id="path42"
         style="fill:#ffffff;fill-opacity:1;fill-rule:nonzero;stroke:none"
         d="m 7559.26,2719.35 v -114.32 h 96.22 v -75.66 h -96.22 v -176.83 c 0,-48.53 13.16,-74.02 51.81,-74.02 17.27,0 30.43,2.47 39.48,4.93 l 1.64,-77.31 c -14.8,-5.75 -41.12,-9.87 -73.2,-9.87 -37.01,0 -68.26,12.34 -87.17,32.9 -21.39,23.03 -31.26,59.22 -31.26,111.86 v 188.34 h -57.57 v 75.66 h 57.57 v 90.47 l 98.7,23.85" /><path
         id="path44"
         style="fill:#ffffff;fill-opacity:1;fill-rule:nonzero;stroke:none"
         d="m 7731.99,2788.44 h 101.98 v -238.51 h 1.65 c 12.34,18.91 28.78,34.54 50.17,46.05 19.74,11.52 43.59,18.1 69.08,18.1 68.27,0 139.82,-45.24 139.82,-173.54 V 2204.5 h -101.16 v 224.52 c 0,58.4 -21.38,101.99 -77.31,101.99 -39.48,0 -67.44,-26.32 -78.13,-56.75 -3.29,-8.22 -4.12,-18.92 -4.12,-30.43 V 2204.5 h -101.98 v 583.94" /><path
         id="path46"
         style="fill:#ffffff;fill-opacity:1;fill-rule:nonzero;stroke:none"
         d="m 8450.02,2447.12 c 0.82,37.01 -15.63,97.87 -83.07,97.87 -62.5,0 -88.82,-56.75 -92.93,-97.87 z m -176,-70.73 c 2.46,-72.38 59.21,-103.63 123.37,-103.63 46.88,0 80.59,6.58 111.03,18.09 l 14.8,-69.9 c -34.54,-13.99 -82.24,-24.68 -139.82,-24.68 -129.94,0 -206.43,79.78 -206.43,202.32 0,111.03 67.44,215.49 195.74,215.49 129.95,0 172.71,-106.92 172.71,-194.92 0,-18.92 -1.64,-33.73 -3.28,-42.77 h -268.12" /></g></g></svg>