<?xml version="1.0" encoding="UTF-8" standalone="no"?>
<svg
   xmlns:dc="http://purl.org/dc/elements/1.1/"
   xmlns:cc="http://creativecommons.org/ns#"
   xmlns:rdf="http://www.w3.org/1999/02/22-rdf-syntax-ns#"
   xmlns:svg="http://www.w3.org/2000/svg"
   xmlns="http://www.w3.org/2000/svg"
   viewBox="0 0 1380 481.33334"
   height="481.33334"
   width="1380"
   xml:space="preserve"
   id="svg2"
   version="1.1"><metadata
     id="metadata8"><rdf:RDF><cc:Work
         rdf:about=""><dc:format>image/svg+xml</dc:format><dc:type
           rdf:resource="http://purl.org/dc/dcmitype/StillImage" /></cc:Work></rdf:RDF></metadata><defs
     id="defs6" /><g
     transform="matrix(1.3333333,0,0,-1.3333333,0,481.33333)"
     id="g10"><g
       transform="scale(0.1)"
       id="g12"><path
         id="path14"
         style="fill:#000000;fill-opacity:1;fill-rule:evenodd;stroke:none"
         d="M 9623.93,3500 H 719.902 C 188.469,3500 100,3315.99 100,2878.38 V 717.711 C 100,280.441 282.02,100 719.297,100 H 9623.97 c 437.63,0 626.03,180.691 626.03,618.281 V 2878.38 c 0,437.61 -188.5,621.62 -626.07,621.62" /><path
         id="path16"
         style="fill:#ffffff;fill-opacity:1;fill-rule:nonzero;stroke:none"
         d="m 1545.84,1992.79 -352.58,-49.62 v -268.93 h 352.58 z m -0.32,-705.83 v 342.18 h -352.2 v -292.61 z m 489.06,773.78 -444.15,-65.31 v -321.19 h 444.15 z m -444.21,-431.55 v -344.91 l 444.14,-65.31 v 410.22 z M 2755.53,842.992 2440.21,728.09 851.344,1046.77 v 1154.75 l 1588.436,318.65 315.75,-117.5 V 842.992" /><path
         id="path18"
         style="fill:#ffffff;fill-opacity:1;fill-rule:nonzero;stroke:none"
         d="m 1341.81,2371.67 c -19.22,-3.49 -37.83,-6.86 -57.12,-10.37 0,2.79 0,4.93 0,7.07 0,93.5 -0.22,187 0.1,280.5 0.15,42.77 5.15,84.98 19.28,125.67 20.71,59.57 59.99,102.57 116.32,130.48 34.07,16.88 70.14,27.8 106.94,36.58 21.91,5.23 43.83,10.53 65.98,14.58 19.82,3.62 39.92,5.86 59.96,8.16 19.38,2.21 38.85,1.82 58.24,-0.07 44.42,-4.31 84.66,-18.38 116.46,-51.28 22.12,-22.88 35.9,-50.54 45.13,-80.66 6.56,-21.42 10.62,-43.35 13.3,-65.6 3.32,-27.63 4.3,-55.37 4.36,-83.15 0.13,-64.71 0.04,-129.43 0.04,-194.14 0,-2.37 0,-4.74 0,-7.92 -18.91,-3.47 -37.65,-6.9 -57.09,-10.46 0,2.85 0,5.19 0,7.53 -0.03,74.84 0.14,149.68 -0.17,224.52 -0.12,30.16 -2.33,60.18 -10.4,89.47 -7.83,28.43 -20.56,53.97 -43.08,73.84 -17.84,15.74 -38.86,24.99 -61.87,29.87 -25.24,5.35 -50.75,5.7 -76.34,2.82 -55.55,-6.27 -109.1,-20.61 -161.15,-40.65 -26.59,-10.23 -51.42,-23.74 -73.24,-42.32 -29.7,-25.28 -48.07,-57.42 -57.32,-95.04 -5.71,-23.21 -8.27,-46.81 -8.29,-70.66 -0.1,-90.52 -0.04,-181.04 -0.04,-271.57 0,-2.32 0,-4.65 0,-7.2" /><path
         id="path20"
         style="fill:#ffffff;fill-opacity:1;fill-rule:nonzero;stroke:none"
         d="m 2149.15,2533.67 c -18.9,-3.44 -37.34,-6.8 -56.56,-10.3 -0.11,2.44 -0.28,4.49 -0.28,6.55 -0.02,23.42 0.29,46.85 -0.12,70.27 -0.34,19.63 -1.08,39.28 -2.5,58.86 -1.01,14.01 -3.95,27.81 -9.4,40.91 -9.28,22.29 -26.41,35.01 -49.46,40.41 -18.75,4.39 -37.78,4.33 -56.82,3.03 -9.08,-0.61 -18.12,-1.92 -27.18,-2.88 -0.94,-0.11 -1.89,-0.02 -2.42,-0.02 -2.86,19.02 -5.64,37.56 -8.53,56.77 8.08,1.2 16.18,2.91 24.37,3.53 19.56,1.48 39.16,3.34 58.74,3.38 21.45,0.04 42.66,-2.93 62.47,-12.22 24.44,-11.44 39.49,-31.09 48.92,-55.69 8.06,-21.04 11.9,-43 14.41,-65.28 5.02,-44.48 4.65,-89.13 4.62,-133.78 0,-0.97 -0.14,-1.95 -0.26,-3.54" /><path
         id="path22"
         style="fill:#ffffff;fill-opacity:1;fill-rule:nonzero;stroke:none"
         d="m 1767.66,2757.53 c 4.77,-10.07 6.28,-43.14 4.94,-58.97 -12.91,-6.34 -25.96,-12.45 -38.75,-19.09 -14.84,-7.71 -28.53,-17.12 -40.2,-29.28 -16.63,-17.3 -25.43,-38.42 -30.19,-61.51 -4.87,-23.62 -5.64,-47.59 -5.65,-71.6 0,-25.99 0.11,-51.99 0.16,-77.99 0,-1.36 -0.16,-2.72 -0.28,-4.74 -18.64,-3.38 -37.18,-6.74 -56.62,-10.27 0,3.16 -0.01,5.28 0,7.4 0.16,36.72 -0.43,73.45 0.69,110.14 1.1,35.91 6.16,71.33 19.73,105.06 13.85,34.45 37.11,60.47 69.28,78.76 23.85,13.56 49.47,22.88 75.28,31.78 0.52,0.17 1.09,0.21 1.61,0.31" /><path
         id="path24"
         style="fill:#ffffff;fill-opacity:1;fill-rule:nonzero;stroke:none"
         d="m 3435.4,2552.4 v -390.43 h 71.95 c 63.36,0 112.66,17.42 147.87,52.26 35.23,34.84 52.84,84.07 52.84,147.69 0,126.98 -65.77,190.48 -197.3,190.48 z m -89.75,-466.55 v 543.04 h 156.78 c 200.2,0 300.29,-88.23 300.29,-264.7 0,-83.82 -27.77,-151.16 -83.31,-202.03 -55.53,-50.88 -130.02,-76.31 -223.42,-76.31 h -150.34" /><path
         id="path26"
         style="fill:#ffffff;fill-opacity:1;fill-rule:nonzero;stroke:none"
         d="m 4065.86,2412.66 c -34.34,0 -61.48,-11.99 -81.42,-35.98 -19.95,-23.98 -29.92,-57.05 -29.92,-99.21 0,-40.65 10.1,-72.65 30.3,-96 20.2,-23.35 47.2,-35.02 81.04,-35.02 34.59,0 61.16,11.48 79.72,34.45 18.55,22.98 27.83,55.67 27.83,98.08 0,42.67 -9.28,75.61 -27.83,98.84 -18.56,23.22 -45.13,34.84 -79.72,34.84 z m -4.17,-335.89 c -59.82,0 -107.61,18.11 -143.33,54.34 -35.72,36.22 -53.58,84.26 -53.58,144.09 0,65.13 18.61,116 55.85,152.61 37.24,36.6 87.42,54.91 150.53,54.91 60.59,0 107.8,-17.8 141.63,-53.39 33.83,-35.6 50.75,-84.96 50.75,-148.07 0,-61.86 -18.25,-111.4 -54.72,-148.64 -36.49,-37.24 -85.53,-55.85 -147.13,-55.85" /><path
         id="path28"
         style="fill:#ffffff;fill-opacity:1;fill-rule:nonzero;stroke:none"
         d="m 4872.03,2473.63 -114.36,-387.78 h -92.03 l -70.43,262.81 c -2.78,10.1 -4.55,21.46 -5.3,34.08 h -1.51 c -0.51,-8.58 -2.78,-19.69 -6.82,-33.32 l -76.49,-263.57 h -90.13 l -113.98,387.78 h 90.88 l 70.43,-279.47 c 2.27,-8.33 3.79,-19.44 4.55,-33.33 h 2.65 c 0.75,10.61 2.78,21.97 6.06,34.09 l 78.39,278.71 h 82.55 l 69.68,-280.61 c 2.27,-8.84 3.91,-19.94 4.92,-33.32 h 2.65 c 0.51,9.34 2.4,20.45 5.68,33.32 l 68.92,280.61 h 83.69" /><path
         id="path30"
         style="fill:#ffffff;fill-opacity:1;fill-rule:nonzero;stroke:none"
         d="m 5280.21,2085.85 h -87.87 v 218.51 c 0,72.45 -25.62,108.68 -76.87,108.68 -26.76,0 -48.85,-10.03 -66.27,-30.11 -17.42,-20.06 -26.12,-45.38 -26.12,-75.92 v -221.16 h -88.25 v 387.78 h 88.25 v -64.38 h 1.51 c 29.02,48.98 70.94,73.47 125.72,73.47 42.16,0 74.35,-13.7 96.57,-41.09 22.21,-27.39 33.33,-66.97 33.33,-118.71 v -237.07" /><path
         id="path32"
         style="fill:#ffffff;fill-opacity:1;fill-rule:nonzero;stroke:none"
         d="m 5473.28,2085.85 h -88.24 v 574.1 h 88.24 v -574.1" /><path
         id="path34"
         style="fill:#ffffff;fill-opacity:1;fill-rule:nonzero;stroke:none"
         d="m 5761.41,2412.66 c -34.34,0 -61.48,-11.99 -81.42,-35.98 -19.95,-23.98 -29.92,-57.05 -29.92,-99.21 0,-40.65 10.1,-72.65 30.3,-96 20.2,-23.35 47.2,-35.02 81.04,-35.02 34.59,0 61.16,11.48 79.71,34.45 18.56,22.98 27.84,55.67 27.84,98.08 0,42.67 -9.28,75.61 -27.84,98.84 -18.55,23.22 -45.12,34.84 -79.71,34.84 z m -4.17,-335.89 c -59.83,0 -107.61,18.11 -143.33,54.34 -35.73,36.22 -53.59,84.26 -53.59,144.09 0,65.13 18.62,116 55.86,152.61 37.24,36.6 87.41,54.91 150.53,54.91 60.58,0 107.79,-17.8 141.63,-53.39 33.83,-35.6 50.74,-84.96 50.74,-148.07 0,-61.86 -18.24,-111.4 -54.71,-148.64 -36.49,-37.24 -85.53,-55.85 -147.13,-55.85" /><path
         id="path36"
         style="fill:#ffffff;fill-opacity:1;fill-rule:nonzero;stroke:none"
         d="m 6249.85,2276.33 -81.41,-11.35 c -25.25,-3.29 -44.25,-9.41 -56.99,-18.37 -12.75,-8.97 -19.13,-24.68 -19.13,-47.15 0,-16.41 5.87,-29.86 17.61,-40.33 11.74,-10.48 27.45,-15.72 47.15,-15.72 26.76,0 48.91,9.41 66.46,28.22 17.54,18.8 26.31,42.47 26.31,71 z m 84.84,-190.48 h -85.21 v 60.6 h -1.51 c -26.77,-46.46 -66.03,-69.68 -117.77,-69.68 -38.13,0 -67.98,10.34 -89.57,31.05 -21.59,20.7 -32.38,48.09 -32.38,82.18 0,73.2 42.16,115.87 126.49,127.99 l 115.11,16.28 c 0,55.29 -26.26,82.94 -78.76,82.94 -46.2,0 -87.86,-15.91 -124.97,-47.72 v 76.88 c 40.9,24.23 88.11,36.35 141.63,36.35 97.95,0 146.94,-48.22 146.94,-144.66 v -252.21" /><path
         id="path38"
         style="fill:#ffffff;fill-opacity:1;fill-rule:nonzero;stroke:none"
         d="m 6705.36,2263.08 v 50.74 c 0,27.52 -8.96,50.87 -26.88,70.06 -17.93,19.19 -40.77,28.78 -68.55,28.78 -32.82,0 -58.63,-12.24 -77.44,-36.73 -18.81,-24.49 -28.21,-58.45 -28.21,-101.87 0,-39.38 9.02,-70.5 27.08,-93.34 18.04,-22.85 42.34,-34.27 72.9,-34.27 30.04,0 54.39,11.04 73.08,33.13 18.69,22.09 28.02,49.92 28.02,83.5 z m 86.72,-177.23 h -87.85 v 65.9 h -1.52 c -28.28,-49.99 -71.82,-74.98 -130.64,-74.98 -47.71,0 -85.91,17.35 -114.56,52.07 -28.65,34.7 -42.98,81.98 -42.98,141.81 0,64.13 15.84,115.5 47.53,154.13 31.68,38.63 73.9,57.94 126.67,57.94 52.26,0 90.25,-20.96 113.98,-62.86 h 1.52 v 240.09 h 87.85 v -574.1" /><path
         id="path40"
         style="fill:#ffffff;fill-opacity:1;fill-rule:nonzero;stroke:none"
         d="m 7334.64,2588.37 c -11.88,6.82 -25.37,10.23 -40.53,10.23 -42.66,0 -63.99,-24.11 -63.99,-72.33 v -52.64 h 90.12 v -68.92 h -89.74 v -318.86 h -87.86 v 318.86 h -66.27 v 68.92 h 66.27 v 62.86 c 0,40.9 13.38,73.15 40.14,96.76 26.76,23.6 60.21,35.41 100.35,35.41 21.71,0 38.88,-2.41 51.51,-7.2 v -73.09" /><path
         id="path42"
         style="fill:#ffffff;fill-opacity:1;fill-rule:nonzero;stroke:none"
         d="m 7605.34,2389.94 c -10.59,8.33 -25.88,12.5 -45.82,12.5 -26,0 -47.71,-11.74 -65.14,-35.22 -17.41,-23.48 -26.12,-55.42 -26.12,-95.81 v -185.56 h -87.86 v 387.78 h 87.86 v -79.9 h 1.52 c 8.58,27.26 21.77,48.53 39.57,63.81 17.8,15.27 37.68,22.91 59.64,22.91 15.9,0 28.02,-2.4 36.35,-7.2 v -83.31" /><path
         id="path44"
         style="fill:#ffffff;fill-opacity:1;fill-rule:nonzero;stroke:none"
         d="m 7834.39,2412.66 c -34.33,0 -61.47,-11.99 -81.41,-35.98 -19.95,-23.98 -29.92,-57.05 -29.92,-99.21 0,-40.65 10.09,-72.65 30.3,-96 20.19,-23.35 47.2,-35.02 81.03,-35.02 34.59,0 61.17,11.48 79.72,34.45 18.56,22.98 27.83,55.67 27.83,98.08 0,42.67 -9.27,75.61 -27.83,98.84 -18.55,23.22 -45.13,34.84 -79.72,34.84 z m -4.17,-335.89 c -59.82,0 -107.6,18.11 -143.33,54.34 -35.72,36.22 -53.58,84.26 -53.58,144.09 0,65.13 18.61,116 55.86,152.61 37.24,36.6 87.41,54.91 150.53,54.91 60.58,0 107.79,-17.8 141.63,-53.39 33.83,-35.6 50.74,-84.96 50.74,-148.07 0,-61.86 -18.24,-111.4 -54.72,-148.64 -36.48,-37.24 -85.52,-55.85 -147.13,-55.85" /><path
         id="path46"
         style="fill:#ffffff;fill-opacity:1;fill-rule:nonzero;stroke:none"
         d="m 8698.89,2085.85 h -87.85 v 211.31 c 0,40.65 -5.76,70.06 -17.24,88.24 -11.49,18.17 -30.86,27.26 -58.13,27.26 -22.97,0 -42.48,-11.49 -58.5,-34.46 -16.04,-22.98 -24.05,-50.49 -24.05,-82.55 v -209.8 h -88.24 v 218.51 c 0,72.2 -25.5,108.3 -76.49,108.3 -23.73,0 -43.23,-10.85 -58.51,-32.57 -15.28,-21.71 -22.91,-49.86 -22.91,-84.44 v -209.8 h -87.86 v 387.78 h 87.86 v -61.34 h 1.52 c 28.01,46.95 68.79,70.43 122.31,70.43 26.76,0 50.18,-7.38 70.24,-22.15 20.08,-14.77 33.77,-34.15 41.1,-58.13 28.78,53.52 71.69,80.28 128.75,80.28 85.33,0 128,-52.64 128,-157.92 v -238.95" /><path
         id="path48"
         style="fill:#ffffff;fill-opacity:1;fill-rule:nonzero;stroke:none"
         d="M 4249.3,1677.79 4054.27,966.16 h -133.49 l -135.48,497.75 c -5.63,21.16 -9.1,44.33 -10.42,69.47 h -1.99 c -1.66,-23.49 -5.62,-46.32 -11.9,-68.48 L 3625.01,966.16 h -136.47 l -199,711.63 h 129.52 l 129.03,-521.07 c 5.29,-21.83 8.6,-44.66 9.93,-68.48 h 2.48 c 1.32,16.87 5.96,39.7 13.89,68.48 l 145.9,521.07 h 121.59 l 134.98,-525.04 c 4.62,-17.86 8.1,-39.04 10.42,-63.52 h 1.98 c 0.99,16.54 4.79,38.38 11.41,65.51 l 126.55,523.05 h 122.08" /><path
         id="path50"
         style="fill:#ffffff;fill-opacity:1;fill-rule:nonzero;stroke:none"
         d="m 4434.02,966.16 h -115.13 v 508.17 h 115.13 z m -57.07,614.86 c -18.85,0 -34.99,6.12 -48.39,18.36 -13.39,12.24 -20.09,27.79 -20.09,46.65 0,18.86 6.7,34.57 20.09,47.15 13.4,12.57 29.54,18.86 48.39,18.86 19.51,0 36.06,-6.29 49.62,-18.86 13.57,-12.58 20.35,-28.29 20.35,-47.15 0,-17.86 -6.78,-33.17 -20.35,-45.9 -13.56,-12.74 -30.11,-19.11 -49.62,-19.11" /><path
         id="path52"
         style="fill:#ffffff;fill-opacity:1;fill-rule:nonzero;stroke:none"
         d="m 5020.71,966.16 h -115.12 v 286.34 c 0,94.95 -33.59,142.43 -100.75,142.43 -35.06,0 -64.02,-13.15 -86.84,-39.46 -22.83,-26.3 -34.24,-59.47 -34.24,-99.49 V 966.16 h -115.63 v 508.17 h 115.63 v -84.36 h 1.98 c 38.04,64.18 92.96,96.27 164.76,96.27 55.24,0 97.43,-17.95 126.54,-53.85 29.11,-35.9 43.67,-87.76 43.67,-155.57 V 966.16" /><path
         id="path54"
         style="fill:#ffffff;fill-opacity:1;fill-rule:nonzero;stroke:none"
         d="m 5493.26,1198.41 v 66.5 c 0,36.05 -11.75,66.66 -35.23,91.8 -23.5,25.15 -53.44,37.72 -89.83,37.72 -43.01,0 -76.84,-16.05 -101.48,-48.14 -24.65,-32.09 -36.97,-76.59 -36.97,-133.49 0,-51.61 11.82,-92.39 35.47,-122.33 23.66,-29.94 55.5,-44.91 95.54,-44.91 39.37,0 71.29,14.47 95.77,43.42 24.49,28.95 36.73,65.42 36.73,109.43 z M 5606.9,966.16 h -115.13 v 86.35 h -1.98 c -37.07,-65.498 -94.14,-98.26 -171.22,-98.26 -62.53,0 -112.56,22.738 -150.11,68.24 -37.55,45.48 -56.33,107.44 -56.33,185.84 0,84.03 20.76,151.36 62.28,201.98 41.52,50.62 96.85,75.93 166,75.93 68.49,0 118.27,-27.47 149.38,-82.38 h 1.98 v 314.63 H 5606.9 V 966.16" /><path
         id="path56"
         style="fill:#ffffff;fill-opacity:1;fill-rule:nonzero;stroke:none"
         d="m 5971.77,1394.43 c -45,0 -80.57,-15.72 -106.7,-47.14 -26.13,-31.44 -39.2,-74.78 -39.2,-130.02 0,-53.27 13.23,-95.2 39.7,-125.81 26.46,-30.6 61.86,-45.9 106.2,-45.9 45.32,0 80.14,15.06 104.46,45.16 24.32,30.11 36.48,72.95 36.48,128.53 0,55.91 -12.16,99.08 -36.48,129.52 -24.32,30.44 -59.14,45.66 -104.46,45.66 z m -5.46,-440.18 c -78.41,0 -141.03,23.742 -187.83,71.21 -46.82,47.47 -70.23,110.42 -70.23,188.83 0,85.35 24.4,152.02 73.21,199.99 48.79,47.97 114.55,71.96 197.25,71.96 79.41,0 141.27,-23.32 185.61,-69.98 44.32,-46.64 66.49,-111.33 66.49,-194.03 0,-81.06 -23.91,-145.98 -71.71,-194.78 -47.81,-48.802 -112.07,-73.2 -192.79,-73.2" /><path
         id="path58"
         style="fill:#ffffff;fill-opacity:1;fill-rule:nonzero;stroke:none"
         d="M 7015.01,1474.33 6865.14,966.16 h -120.59 l -92.3,344.4 c -3.65,13.23 -5.96,28.12 -6.96,44.66 h -1.98 c -0.66,-11.25 -3.64,-25.8 -8.93,-43.66 l -100.25,-345.4 h -118.1 l -149.38,508.17 h 119.1 l 92.31,-366.24 c 2.98,-10.92 4.96,-25.48 5.95,-43.67 h 3.48 c 0.99,13.9 3.63,28.78 7.94,44.66 l 102.72,365.25 h 108.19 l 91.31,-367.73 c 2.98,-11.58 5.12,-26.14 6.45,-43.67 h 3.47 c 0.66,12.24 3.14,26.8 7.45,43.67 l 90.31,367.73 h 109.68" /><path
         id="path60"
         style="fill:#ffffff;fill-opacity:1;fill-rule:nonzero;stroke:none"
         d="m 7327.39,994.449 v 121.581 c 10.92,-9.92 23.9,-18.86 38.96,-26.8 15.05,-7.94 31.01,-14.64 47.89,-20.09 16.86,-5.46 33.74,-9.68 50.61,-12.66 16.88,-2.98 32.43,-4.46 46.65,-4.46 49.62,0 86.6,8.26 110.91,24.81 24.32,16.53 36.48,40.52 36.48,71.95 0,16.88 -4.06,31.52 -12.16,43.93 -8.11,12.4 -19.44,23.73 -34,33.98 -14.56,10.26 -31.68,20.11 -51.35,29.54 -19.69,9.42 -40.78,19.26 -63.27,29.52 -24.16,12.9 -46.65,25.97 -67.5,39.21 -20.84,13.22 -38.96,27.86 -54.34,43.91 -15.38,16.05 -27.46,34.16 -36.23,54.34 -8.77,20.18 -13.15,43.84 -13.15,70.97 0,33.41 7.52,62.44 22.58,87.09 15.05,24.64 34.91,44.99 59.55,61.04 24.64,16.04 52.68,27.95 84.11,35.73 31.43,7.77 63.53,11.66 96.28,11.66 74.44,0 128.7,-8.44 162.78,-25.31 v -116.62 c -40.37,29.11 -92.31,43.68 -155.83,43.68 -17.54,0 -34.98,-1.66 -52.36,-4.97 -17.37,-3.31 -32.92,-8.77 -46.65,-16.37 -13.73,-7.62 -24.89,-17.38 -33.49,-29.28 -8.61,-11.91 -12.9,-26.3 -12.9,-43.18 0,-15.88 3.3,-29.61 9.92,-41.19 6.62,-11.58 16.3,-22.17 29.03,-31.76 12.74,-9.6 28.29,-18.94 46.65,-28.03 18.36,-9.11 39.61,-18.95 63.77,-29.53 24.82,-12.91 48.21,-26.48 70.22,-40.69 22,-14.23 41.35,-29.95 58.06,-47.15 16.7,-17.21 29.94,-36.31 39.7,-57.32 9.76,-21.01 14.64,-44.91 14.64,-71.71 0,-36.06 -7.28,-66.5 -21.84,-91.31 -14.56,-24.81 -34.16,-45 -58.8,-60.538 -24.65,-15.551 -53.02,-26.801 -85.1,-33.75 -32.1,-6.953 -66.01,-10.422 -101.74,-10.422 -11.91,0 -26.55,0.922 -43.92,2.73 -17.37,1.821 -35.15,4.469 -53.35,7.942 -18.19,3.469 -35.4,7.687 -51.61,12.66 -16.21,4.957 -29.28,10.578 -39.2,16.867" /><path
         id="path62"
         style="fill:#ffffff;fill-opacity:1;fill-rule:nonzero;stroke:none"
         d="m 8123,971.621 c -22.5,-11.242 -52.1,-16.871 -88.83,-16.871 -98.59,0 -147.88,47.31 -147.88,141.93 v 287.33 h -84.86 v 90.32 h 84.86 v 117.61 l 115.13,32.75 V 1474.33 H 8123 v -90.32 h -121.58 v -254.08 c 0,-30.11 5.46,-51.61 16.37,-64.51 10.92,-12.91 29.11,-19.36 54.59,-19.36 19.51,0 36.39,5.62 50.62,16.87 v -91.309" /><path
         id="path64"
         style="fill:#ffffff;fill-opacity:1;fill-rule:nonzero;stroke:none"
         d="m 8430.79,1394.43 c -45,0 -80.57,-15.72 -106.7,-47.14 -26.13,-31.44 -39.2,-74.78 -39.2,-130.02 0,-53.27 13.24,-95.2 39.7,-125.81 26.46,-30.6 61.87,-45.9 106.2,-45.9 45.32,0 80.15,15.06 104.46,45.16 24.32,30.11 36.48,72.95 36.48,128.53 0,55.91 -12.16,99.08 -36.48,129.52 -24.31,30.44 -59.14,45.66 -104.46,45.66 z m -5.46,-440.18 c -78.41,0 -141.02,23.742 -187.83,71.21 -46.82,47.47 -70.22,110.42 -70.22,188.83 0,85.35 24.39,152.02 73.2,199.99 48.8,47.97 114.55,71.96 197.25,71.96 79.41,0 141.27,-23.32 185.61,-69.98 44.33,-46.64 66.49,-111.33 66.49,-194.03 0,-81.06 -23.9,-145.98 -71.7,-194.78 -47.82,-48.802 -112.08,-73.2 -192.8,-73.2" /><path
         id="path66"
         style="fill:#ffffff;fill-opacity:1;fill-rule:nonzero;stroke:none"
         d="m 9085.47,1364.65 c -13.9,10.92 -33.92,16.38 -60.04,16.38 -34.08,0 -62.53,-15.38 -85.36,-46.15 -22.82,-30.77 -34.24,-72.62 -34.24,-125.55 V 966.16 h -115.14 v 508.17 h 115.14 v -104.71 h 1.98 c 11.24,35.73 28.54,63.6 51.86,83.62 23.33,20.01 49.38,30.02 78.16,30.02 20.84,0 36.72,-3.15 47.64,-9.43 v -109.18" /><path
         id="path68"
         style="fill:#ffffff;fill-opacity:1;fill-rule:nonzero;stroke:none"
         d="m 9460.75,1270.37 c -0.33,41.35 -10.09,73.52 -29.28,96.52 -19.18,22.99 -45.65,34.49 -79.39,34.49 -33.1,0 -61.13,-12.08 -84.12,-36.23 -23,-24.15 -37.14,-55.75 -42.43,-94.78 z m 111.16,-81.39 h -346.38 c 1.32,-46.98 15.8,-83.21 43.43,-108.68 27.61,-25.48 65.57,-38.21 113.88,-38.21 54.26,0 104.04,16.21 149.38,48.63 V 997.922 C 9485.9,968.809 9424.69,954.25 9348.6,954.25 c -74.77,0 -133.41,23.082 -175.92,69.23 -42.51,46.15 -63.77,111.08 -63.77,194.78 0,79.07 23.4,143.49 70.22,193.29 46.81,49.79 104.96,74.69 174.43,74.69 69.48,0 123.24,-22.33 161.28,-67 38.05,-44.66 57.07,-106.69 57.07,-186.09 v -44.17" /></g></g></svg>